<?xml version="1.0" encoding="UTF-8" standalone="no"?>
<!-- Created with Inkscape (http://www.inkscape.org/) -->

<svg
   width="65.134003mm"
   height="19.977551mm"
   viewBox="0 0 65.134 19.977551"
   version="1.1"
   id="svg1"
   sodipodi:docname="logo.svg"
   inkscape:version="1.3.2 (091e20e, 2023-11-25, custom)"
   xmlns:inkscape="http://www.inkscape.org/namespaces/inkscape"
   xmlns:sodipodi="http://sodipodi.sourceforge.net/DTD/sodipodi-0.dtd"
   xmlns:xlink="http://www.w3.org/1999/xlink"
   xmlns="http://www.w3.org/2000/svg"
   xmlns:svg="http://www.w3.org/2000/svg">
  <sodipodi:namedview
     id="namedview1"
     pagecolor="#ffffff"
     bordercolor="#000000"
     borderopacity="0.25"
     inkscape:showpageshadow="2"
     inkscape:pageopacity="0.0"
     inkscape:pagecheckerboard="0"
     inkscape:deskcolor="#d1d1d1"
     inkscape:document-units="mm"
     inkscape:zoom="1.1201244"
     inkscape:cx="240.15191"
     inkscape:cy="-58.47565"
     inkscape:window-width="1920"
     inkscape:window-height="1129"
     inkscape:window-x="-8"
     inkscape:window-y="-8"
     inkscape:window-maximized="1"
     inkscape:current-layer="layer1" />
  <defs
     id="defs1">
    <linearGradient
       x1="0"
       y1="0"
       x2="1"
       y2="0"
       gradientUnits="userSpaceOnUse"
       gradientTransform="matrix(20.112417,-20.112417,20.112417,20.112417,50.586454,158.69662)"
       spreadMethod="pad"
       id="linearGradient68">
      <stop
         style="stop-color:#06947a;stop-opacity:1;"
         offset="0"
         id="stop62" />
      <stop
         style="stop-color:#06947a;stop-opacity:1;"
         offset="0.00018973"
         id="stop63" />
      <stop
         style="stop-color:#06947a;stop-opacity:1;"
         offset="0.00045455"
         id="stop64" />
      <stop
         style="stop-color:#06947a;stop-opacity:1;"
         offset="0.1917228"
         id="stop65" />
      <stop
         style="stop-color:#6cb44f;stop-opacity:1;"
         offset="0.42518324"
         id="stop66" />
      <stop
         style="stop-color:#a7c833;stop-opacity:1;"
         offset="0.56743956"
         id="stop67" />
      <stop
         style="stop-color:#a7c833;stop-opacity:1;"
         offset="1"
         id="stop68" />
    </linearGradient>
    <linearGradient
       x1="0"
       y1="0"
       x2="1"
       y2="0"
       gradientUnits="userSpaceOnUse"
       gradientTransform="matrix(81.608795,0,0,81.608795,83.623848,163.84812)"
       spreadMethod="pad"
       id="linearGradient52">
      <stop
         style="stop-opacity:1;stop-color:#2e9b84"
         offset="0"
         id="stop46" />
      <stop
         style="stop-color:#06947a;stop-opacity:1;"
         offset="0.00018973"
         id="stop47" />
      <stop
         style="stop-color:#06947a;stop-opacity:1;"
         offset="0.00045455"
         id="stop48" />
      <stop
         style="stop-color:#06947a;stop-opacity:1;"
         offset="0.1917228"
         id="stop49" />
      <stop
         style="stop-color:#6cb44f;stop-opacity:1;"
         offset="0.43000001"
         id="stop50" />
      <stop
         style="stop-color:#a7c833;stop-opacity:1;"
         offset="0.56743956"
         id="stop51" />
      <stop
         style="stop-color:#a7c838;stop-opacity:1;"
         offset="1"
         id="stop52" />
    </linearGradient>
    <linearGradient
       x1="0"
       y1="0"
       x2="1"
       y2="0"
       gradientUnits="userSpaceOnUse"
       gradientTransform="matrix(20.112417,-20.112417,20.112417,20.112417,50.586454,158.69662)"
       spreadMethod="pad"
       id="linearGradient37">
      <stop
         style="stop-opacity:1;stop-color:#2e9b84"
         offset="0"
         id="stop24" />
      <stop
         style="stop-color:#06947a;stop-opacity:1;"
         offset="0.00018973"
         id="stop25" />
      <stop
         style="stop-color:#06947a;stop-opacity:1;"
         offset="0.00045455"
         id="stop26" />
      <stop
         style="stop-color:#06947a;stop-opacity:1;"
         offset="0.1917228"
         id="stop27" />
      <stop
         style="stop-color:#6cb44f;stop-opacity:1;"
         offset="0.42518324"
         id="stop28" />
      <stop
         style="stop-color:#a7c833;stop-opacity:1;"
         offset="0.56743956"
         id="stop29" />
      <stop
         style="stop-color:#a7c833;stop-opacity:1;"
         offset="1"
         id="stop30" />
    </linearGradient>
    <linearGradient
       xlink:href="#linearGradient52"
       id="linearGradient45"
       gradientUnits="userSpaceOnUse"
       gradientTransform="matrix(33.02794,0,0,33.02794,43.258082,259.11592)"
       x1="0"
       y1="0"
       x2="1"
       y2="0"
       spreadMethod="pad" />
    <linearGradient
       xlink:href="#linearGradient68"
       id="linearGradient46"
       gradientUnits="userSpaceOnUse"
       gradientTransform="matrix(12.587603,-12.587603,12.587603,12.587603,22.537472,266.32104)"
       x1="0"
       y1="0"
       x2="1"
       y2="0"
       spreadMethod="pad" />
    <linearGradient
       xlink:href="#linearGradient37"
       id="linearGradient47"
       gradientUnits="userSpaceOnUse"
       gradientTransform="matrix(12.587603,-12.587603,12.587603,12.587603,22.537472,266.32104)"
       x1="0"
       y1="0"
       x2="1"
       y2="0"
       spreadMethod="pad" />
  </defs>
  <g
     id="layer1"
     transform="translate(-19.028075,-249.96076)">
    <text
       xml:space="preserve"
       style="font-size:11.9945px;line-height:1.5;font-family:'Fira Sans';-inkscape-font-specification:'Fira Sans';text-align:start;letter-spacing:0.358914px;word-spacing:0px;text-anchor:start;fill:#028675;fill-opacity:1;stroke:#ffffff;stroke-width:1.32931;stroke-linecap:round;stroke-linejoin:bevel;paint-order:markers fill stroke"
       x="42.652271"
       y="268.94745"
       id="text1-7-81-6-5-0-9-6-6"><tspan
         id="tspan1-8-1-4-47-0-7-7-05"
         style="font-style:normal;font-variant:normal;font-weight:normal;font-stretch:normal;font-size:11.9945px;line-height:1.5;font-family:'Fira Sans';-inkscape-font-specification:'Fira Sans';text-align:start;letter-spacing:0.358914px;word-spacing:0px;text-anchor:start;fill:#028675;fill-opacity:1;stroke:none;stroke-width:1.32931"
         x="42.652271"
         y="268.94745">SciWIn</tspan></text>
    <path
       id="path170-9-4-0-0-0-9-6-0-7"
       d="m 54.727471,251.53048 v 5.45036 h 0.676883 v -2.23055 h 0.969285 l 1.408748,2.23055 h 0.87662 l -1.557365,-2.26439 c 0.392773,-0.059 0.706442,-0.19516 0.939019,-0.41089 v 0 c 0.319666,-0.29654 0.479429,-0.68346 0.479429,-1.16075 v 0 c 0,-0.48314 -0.159763,-0.87305 -0.479429,-1.16959 v 0 c -0.319815,-0.29639 -0.790533,-0.44474 -1.412596,-0.44474 v 0 z m 0.676883,0.58137 h 1.223711 c 0.390626,0 0.687873,0.0971 0.891898,0.29083 v 0 c 0.203887,0.19375 0.305827,0.45574 0.305827,0.78554 v 0 c 0,0.3211 -0.106371,0.58222 -0.318952,0.78311 v 0 c -0.212737,0.20116 -0.522845,0.30168 -0.930882,0.30168 v 0 h -1.171602 z m -3.107162,4.86899 h 0.677026 v -5.45036 h -0.677026 z m -3.762352,-5.45036 -1.874608,5.45036 h 0.71158 l 0.477433,-1.39732 h 2.169714 l 0.460015,1.39732 h 0.711725 l -1.831205,-5.45036 z m 0.399337,0.82451 0.911174,2.69927 h -1.822498 z m -5.676082,-0.82451 v 5.45036 h 0.676888 v -2.47354 h 2.456266 v -0.58138 h -2.456266 v -1.81407 h 2.638442 v -0.58137 z m 24.743828,0.65733 c -0.176468,0.1028 -0.312531,0.24599 -0.4079,0.42975 v 0 c -0.0665,0.12777 -0.108368,0.27112 -0.128502,0.42788 v 0 c -0.0665,-0.047 -0.136344,-0.0908 -0.212155,-0.12849 v 0 c -0.253136,-0.12592 -0.534542,-0.18874 -0.843931,-0.18874 v 0 c -0.318382,0 -0.605503,0.0628 -0.861493,0.18874 v 0 c -0.256134,0.12578 -0.458588,0.30297 -0.6075,0.53154 v 0 c -0.149055,0.22858 -0.223433,0.49471 -0.223433,0.79853 v 0 c 0,0.30082 0.07438,0.56552 0.223433,0.79411 v 0 c 0.07154,0.10979 0.156197,0.20729 0.252573,0.29368 v 0 c -0.06414,0.0152 -0.127069,0.0334 -0.187608,0.0578 v 0 c -0.157617,0.0637 -0.285544,0.1562 -0.383917,0.27769 v 0 c -0.09837,0.12164 -0.147628,0.26913 -0.147628,0.44275 v 0 c 0,0.16476 0.05495,0.31667 0.165046,0.45559 v 0 c 0.08866,0.11207 0.209589,0.20588 0.35979,0.28311 v 0 c 0.0013,-4e-4 0.0038,-4e-4 0.0056,-6.2e-4 v 0 l 0.0013,0.004 c -0.0019,-10e-4 -0.005,-0.002 -0.0069,-0.004 v 0 c -0.169903,0.042 -0.320097,0.10822 -0.448881,0.20074 v 0 c -0.235718,0.16919 -0.35365,0.41433 -0.35365,0.73542 v 0 c 0,0.24314 0.0861,0.46516 0.258143,0.66632 v 0 c 0.172181,0.20088 0.414465,0.3615 0.726852,0.48158 v 0 c 0.31253,0.11993 0.681314,0.18018 1.106631,0.18018 v 0 c 0.503412,0 0.935877,-0.0804 1.297519,-0.241 v 0 c 0.361648,-0.16048 0.639337,-0.36593 0.833216,-0.61607 v 0 c 0.193749,-0.25042 0.290695,-0.51141 0.290695,-0.78339 v 0 c 0,-0.29497 -0.11208,-0.52498 -0.336226,-0.69002 v 0 c -0.224303,-0.16476 -0.531689,-0.24729 -0.922177,-0.24729 v 0 h -1.61433 c -0.289255,0 -0.488855,-0.0448 -0.598794,-0.13463 v 0 c -0.109933,-0.0897 -0.164902,-0.20088 -0.164902,-0.3341 v 0 c 0,-0.11564 0.02967,-0.21186 0.08895,-0.28853 v 0 c 0.05927,-0.0767 0.133071,-0.1345 0.221299,-0.17361 v 0 c 0.04757,-0.021 0.09494,-0.036 0.142196,-0.0455 v 0 c 0.0079,0.004 0.01458,0.009 0.02272,0.013 v 0 c 0.25599,0.12735 0.543104,0.19103 0.861487,0.19103 v 0 c 0.309395,0 0.590801,-0.0636 0.843931,-0.19103 v 0 c 0.253136,-0.1272 0.455021,-0.3051 0.605359,-0.53368 v 0 c 0.150482,-0.22858 0.22558,-0.49328 0.22558,-0.7941 v 0 c 0,-0.30383 -0.0751,-0.56996 -0.22558,-0.79853 v 0 c -0.0256,-0.0387 -0.05457,-0.0737 -0.08295,-0.1095 v 0 c 0.0095,-0.20845 0.07581,-0.36665 0.204444,-0.46988 v 0 c 0.138922,-0.11122 0.338522,-0.16705 0.598787,-0.16705 v 0 l 0.05226,-0.66831 c -0.243141,0 -0.452874,0.0514 -0.629336,0.15406 m -2.33677,2.79691 c -0.180899,-0.19674 -0.271267,-0.44273 -0.271267,-0.7377 v 0 c 0,-0.30383 0.09037,-0.55039 0.271267,-0.73985 v 0 c 0.180749,-0.1896 0.428747,-0.28426 0.74427,-0.28426 v 0 c 0.3181,0 0.565535,0.0947 0.741859,0.28426 v 0 c 0.1766,0.18946 0.26484,0.43602 0.26484,0.73985 v 0 c 0,0.29497 -0.08824,0.54096 -0.26484,0.7377 v 0 c -0.176324,0.19674 -0.423759,0.29512 -0.741859,0.29512 v 0 c -0.315523,0 -0.563521,-0.0984 -0.74427,-0.29512 m 0.171324,2.04822 h 1.61433 c 0.196746,0 0.342804,0.047 0.438317,0.14106 v 0 c 0.09551,0.0941 0.143203,0.20617 0.143203,0.33623 v 0 c 0,0.18518 -0.0731,0.35808 -0.219158,0.51869 v 0 c -0.146057,0.16048 -0.349938,0.29055 -0.611924,0.39049 v 0 c -0.261842,0.0998 -0.566237,0.14976 -0.913465,0.14976 v 0 c -0.468577,0 -0.824511,-0.0781 -1.067508,-0.23428 v 0 c -0.243004,-0.15634 -0.364496,-0.34722 -0.364496,-0.57295 v 0 c 0,-0.22558 0.08537,-0.40362 0.25599,-0.53368 v 0 c 0.170754,-0.13021 0.412331,-0.19532 0.724711,-0.19532 v 0 c 0,0 0,0 0,0 m 7.526989,-4.05746 c -0.290826,0.1649 -0.520123,0.40862 -0.687879,0.73114 v 0 c -0.167762,0.32267 -0.251703,0.72258 -0.251703,1.2 v 0 c 0,0.47444 0.08394,0.87377 0.251703,1.19759 v 0 c 0.167756,0.32409 0.397053,0.56852 0.687879,0.73356 v 0 c 0.290688,0.16476 0.622633,0.24729 0.995841,0.24729 v 0 c 0.370348,0 0.700734,-0.0825 0.99156,-0.24729 v 0 c 0.290825,-0.16504 0.519265,-0.40947 0.685594,-0.73356 v 0 c 0.166329,-0.32382 0.249563,-0.72315 0.249563,-1.19759 v 0 c 0,-0.47742 -0.08323,-0.87733 -0.249563,-1.2 v 0 c -0.166329,-0.32252 -0.394769,-0.56624 -0.685594,-0.73114 v 0 c -0.290826,-0.1649 -0.621212,-0.24729 -0.99156,-0.24729 v 0 c -0.373208,0 -0.705153,0.0824 -0.995841,0.24729 m 0.06498,3.09189 c -0.206879,-0.28497 -0.310108,-0.67189 -0.310108,-1.16075 v 0 c 0,-0.3298 0.04838,-0.61406 0.145206,-0.85278 v 0 c 0.09694,-0.23857 0.238716,-0.42232 0.425173,-0.5511 v 0 c 0.186751,-0.12878 0.416042,-0.19317 0.687885,-0.19317 v 0 c 0.40504,0 0.710291,0.14248 0.915743,0.4276 v 0 c 0.205452,0.28484 0.3081,0.67474 0.3081,1.16945 v 0 c 0,0.32681 -0.04838,0.60893 -0.145482,0.84622 v 0 c -0.09694,0.23714 -0.23943,0.42018 -0.42732,0.54896 v 0 c -0.188028,0.12878 -0.416611,0.19303 -0.685738,0.19303 v 0 c -0.402192,0 -0.70658,-0.14248 -0.913459,-0.42746 m -12.745047,-3.21553 c -0.258994,0.0824 -0.462162,0.21558 -0.609784,0.39919 v 0 c -0.147484,0.18375 -0.221161,0.42603 -0.221161,0.72685 v 0 h 0.754984 c 0,-0.17061 0.04268,-0.31024 0.127926,-0.41875 v 0 c 0.08538,-0.10836 0.201165,-0.18874 0.347223,-0.24071 v 0 c 0.146057,-0.0523 0.308813,-0.0782 0.488141,-0.0782 v 0 c 0.318382,0 0.556955,0.0818 0.716149,0.24529 v 0 c 0.15905,0.16333 0.238572,0.43174 0.238572,0.80495 v 0 0.55338 c -0.189173,-0.0652 -0.381913,-0.11936 -0.579373,-0.15847 v 0 c -0.218301,-0.0434 -0.436169,-0.0652 -0.653043,-0.0652 v 0 c -0.303681,0 -0.577089,0.0412 -0.820086,0.12379 v 0 c -0.242998,0.0824 -0.434743,0.21187 -0.575086,0.38834 v 0 c -0.14035,0.17661 -0.210453,0.40504 -0.210453,0.68559 v 0 c 0,0.21416 0.05495,0.41805 0.165046,0.61193 v 0 c 0.109795,0.19374 0.276268,0.35165 0.49885,0.473 v 0 c 0.22287,0.1215 0.504846,0.18233 0.846354,0.18233 v 0 c 0.309539,0 0.575661,-0.0722 0.798393,-0.21702 v 0 c 0.22272,-0.14463 0.394193,-0.33566 0.514265,-0.57281 v 0 c 0.01139,-0.0227 0.01971,-0.0464 0.0301,-0.0694 v 0 l 0.07182,0.75498 h 0.590075 v -2.67298 c 0,-0.37336 -0.06942,-0.67632 -0.208162,-0.90919 v 0 c -0.138922,-0.233 -0.331375,-0.4029 -0.577088,-0.50998 v 0 c -0.245996,-0.10708 -0.527972,-0.16048 -0.846366,-0.16048 v 0 c -0.332652,0 -0.628479,0.0413 -0.887329,0.12364 m -0.05645,3.48681 c -0.146195,-0.14463 -0.219296,-0.31825 -0.219296,-0.52084 v 0 c 0,-0.27484 0.09551,-0.4693 0.286395,-0.58352 v 0 c 0.191032,-0.11435 0.425323,-0.17146 0.703018,-0.17146 v 0 c 0.18232,0 0.382771,0.0203 0.601216,0.0608 v 0 c 0.193742,0.0358 0.368783,0.0838 0.52712,0.14248 v 0 0.2567 c 0,0.15906 -0.05282,0.3181 -0.158337,0.47729 v 0 c -0.105508,0.1592 -0.248855,0.29155 -0.429604,0.39706 v 0 c -0.180749,0.10551 -0.384054,0.15834 -0.609778,0.15834 v 0 c -0.321098,0 -0.554676,-0.0722 -0.700734,-0.21687 m 10.158721,-3.32619 c -0.161904,0.14277 -0.29112,0.34708 -0.388341,0.61136 v 0 -0.8001 h -0.676945 v 4.15711 h 0.677026 v -1.8746 c 0,-0.34423 0.03399,-0.64377 0.101941,-0.89833 v 0 c 0.06796,-0.25457 0.177175,-0.45202 0.327657,-0.59236 v 0 c 0.150489,-0.14035 0.348506,-0.21045 0.594507,-0.21045 v 0 c 0.07525,0 0.160484,0.009 0.255996,0.0283 v 0 c 0.09551,0.0187 0.183747,0.0412 0.264703,0.0673 v 0 l 0.04337,-0.66831 c -0.07809,-0.026 -0.155477,-0.0456 -0.232145,-0.0587 v 0 c -0.07667,-0.0128 -0.161335,-0.0195 -0.253843,-0.0195 v 0 c -0.280556,0 -0.518559,0.0861 -0.713865,0.25827"
       style="fill:url(#linearGradient45);stroke:none;stroke-width:0.142773" />
    <path
       id="path184-6-1-1-6-2-24-8-5-8"
       d="m 37.685298,250.23102 c -0.11437,0.11481 -0.194737,0.25501 -0.236689,0.40713 v 0 H 30.49195 c -0.107749,-0.38086 -0.45218,-0.66038 -0.860204,-0.66038 v 0 c -0.408019,0 -0.75223,0.27952 -0.859979,0.66038 v 0 H 20.08411 c -0.184579,0 -0.334273,0.14948 -0.334273,0.33406 v 0 16.96177 c -0.416192,0.12387 -0.721763,0.51665 -0.721763,0.98164 v 0 c 0,0.56389 0.448869,1.0227 1.000178,1.0227 v 0 c 0.327433,0 0.61777,-0.16251 0.800365,-0.41222 v 0 h 17.474889 c 0.184585,0 0.334498,-0.14947 0.334498,-0.33428 v 0 -8.62472 c 0.415967,-0.12365 0.721544,-0.51643 0.721544,-0.98142 v 0 c 0,-0.46498 -0.305577,-0.85777 -0.721544,-0.98141 v 0 -6.90036 c 0.114151,-0.0451 0.221674,-0.11349 0.314408,-0.206 v 0 c 0.35569,-0.35569 0.360991,-0.9293 0.0117,-1.2786 v 0 c 0,0 0,0 0,-2.1e-4 v 0 c -0.172438,-0.17222 -0.399851,-0.25811 -0.628372,-0.25833 v 0 c -0.234479,0 -0.470285,0.0903 -0.650446,0.27025 m -7.776896,3.03719 v -1.51175 c 0.225423,-0.0751 0.412212,-0.23801 0.519516,-0.44997 v 0 h 7.057123 L 35.05789,253.695 c 0.01677,0.015 0.03399,0.0292 0.05013,0.0451 v 0 c 0.114151,0.11414 0.200257,0.24949 0.265835,0.41133 v 0 l 2.521205,-2.4808 c 0.02428,0.0126 0.04925,0.0225 0.07418,0.0327 v 0 6.94099 c -0.279522,0.12143 -0.492366,0.37026 -0.573171,0.67407 v 0 l -1.816221,-0.0128 v 0.5469 l 1.819088,0.013 c 0.08324,0.29829 0.294537,0.54182 0.570304,0.66171 v 0 8.33042 H 21.025132 c -0.0071,-0.12696 -0.03599,-0.24817 -0.08456,-0.35901 v 0 l 1.92728,-1.86413 c -0.137996,-0.0643 -0.257442,-0.14462 -0.359226,-0.2464 v 0 c -0.02848,-0.0283 -0.05476,-0.0585 -0.08015,-0.0894 v 0 l -1.834766,1.7745 c -0.05432,-0.0384 -0.113706,-0.0691 -0.17531,-0.096 v 0 -16.67054 h 8.41741 c 0.108186,0.21394 0.297403,0.37821 0.525699,0.45239 v 0 1.50933 z"
       style="font-variation-settings:normal;display:inline;vector-effect:none;fill:url(#linearGradient46);fill-opacity:1;stroke:none;stroke-width:0.22079;stroke-linecap:butt;stroke-linejoin:miter;stroke-miterlimit:4;stroke-dasharray:none;stroke-dashoffset:0;stroke-opacity:1;-inkscape-stroke:none;stop-color:#000000" />
    <path
       id="path177-60-7-5-2-1-3-7-7-0"
       d="m 35.079332,253.71442 c 0.0086,0.008 0.01809,0.0155 0.02647,0.0236 v 0 -0.0236 z m -2.909352,0.10091 h -2.26067 c 0.0056,0.0217 0.0084,0.0439 0.0084,0.0673 v 0 4.93886 l 4.745225,-4.74523 c -0.345538,-0.26075 -1.126696,-0.26097 -2.48058,-0.26097 v 0 c -0.0044,0 -0.0081,0 -0.01239,0 m -5.648701,0 c 0.0056,0.0217 0.0082,0.0439 0.0082,0.0673 v 0 8.32733 l 2.841352,-2.84135 v -5.48598 c 0,-0.0234 0.0031,-0.0457 0.0084,-0.0673 v 0 z m -0.982297,0 c -1.644666,0 -2.982209,1.33776 -2.982209,2.98221 v 0 6.56035 c 0,1.4327 0.01214,2.19289 0.267156,2.55763 v 0 l 3.15862,-3.15841 v -2.2e-4 -8.87422 c 0,-0.0234 0.0025,-0.0457 0.0081,-0.0673 v 0 z m 4.711228,5.44756 h 4.782533 v -2.5848 c 2.25e-4,-0.98318 2.25e-4,-1.66564 -0.09803,-2.09949 v 0 z m -3.388249,3.38825 h 8.170782 v -2.84136 h -5.296754 c -0.01058,0 -0.02097,-6.2e-4 -0.03111,-10e-4 v 0 z m -3.562233,3.56222 c 0.432308,0.11967 1.136628,0.12696 2.239254,0.12696 v 0 h 6.511546 c 1.644228,0 2.982215,-1.33799 2.982215,-2.98243 v 0 -0.15964 h -8.659831 c -0.01809,0 -0.0358,-0.002 -0.05276,-0.005 v 0 z"
       style="display:inline;fill:url(#linearGradient47);stroke:none;stroke-width:0.22079" />
  </g>
</svg>
